<svg xmlns="http://www.w3.org/2000/svg" xmlns:xlink="http://www.w3.org/1999/xlink" viewBox="0 0 100.167 100.167" fill="#fff" fill-rule="evenodd" stroke="#000" stroke-linecap="round" stroke-linejoin="round"><use xlink:href="#A" x="2.083" y="2.083"/><symbol id="A" overflow="visible"><path d="M48.333.658c-26.192 0-47.5 21.308-47.5 47.5s21.308 47.5 47.5 47.5 47.5-21.308 47.5-47.5-21.308-47.5-47.5-47.5z" fill="#fcea2b" stroke="none" fill-rule="nonzero"/><path d="M0 47.917C0 21.37 21.37 0 47.917 0s47.917 21.37 47.917 47.917-21.37 47.917-47.917 47.917S0 74.463 0 47.917z" fill="none" stroke-width="4.167" stroke-linejoin="miter"/><path d="M36.077 37.344a6.25 6.25 0 0 1-12.5 0c0-3.448 2.802-6.25 6.25-6.25s6.25 2.802 6.25 6.25m37.5 0a6.25 6.25 0 1 1-12.5 0c0-3.448 2.802-6.25 6.25-6.25s6.25 2.802 6.25 6.25" stroke="none" fill="#000" fill-rule="nonzero"/><path d="M29.167 62.5h37.5" fill="none" stroke-width="4.167" stroke-miterlimit="10"/></symbol></svg>